<svg xmlns="http://www.w3.org/2000/svg" viewBox="0 0 32 32" shape-rendering="crispEdges" width="512" height="512"><rect width="32" height="32" fill="#83cfc1"/><rect x="14" y="8" width="1" height="1" fill="rgb(0,0,0)" /><rect x="22" y="8" width="1" height="1" fill="rgb(0,0,0)" /><rect x="13" y="9" width="1" height="1" fill="rgb(0,0,0)" /><rect x="15" y="9" width="1" height="1" fill="rgb(0,0,0)" /><rect x="21" y="9" width="1" height="1" fill="rgb(0,0,0)" /><rect x="23" y="9" width="1" height="1" fill="rgb(0,0,0)" /><rect x="12" y="10" width="1" height="1" fill="rgb(0,0,0)" /><rect x="16" y="10" width="1" height="1" fill="rgb(0,0,0)" /><rect x="20" y="10" width="1" height="1" fill="rgb(0,0,0)" /><rect x="23" y="10" width="1" height="1" fill="rgb(0,0,0)" /><rect x="12" y="11" width="1" height="1" fill="rgb(0,0,0)" /><rect x="17" y="11" width="4" height="1" fill="rgb(0,0,0)" /><rect x="23" y="11" width="1" height="1" fill="rgb(0,0,0)" /><rect x="12" y="12" width="1" height="1" fill="rgb(0,0,0)" /><rect x="23" y="12" width="1" height="1" fill="rgb(0,0,0)" /><rect x="12" y="13" width="1" height="1" fill="rgb(0,0,0)" /><rect x="23" y="13" width="1" height="1" fill="rgb(0,0,0)" /><rect x="11" y="14" width="2" height="1" fill="rgb(0,0,0)" /><rect x="24" y="14" width="1" height="1" fill="rgb(0,0,0)" /><rect x="11" y="15" width="1" height="1" fill="rgb(0,0,0)" /><rect x="24" y="15" width="1" height="1" fill="rgb(0,0,0)" /><rect x="6" y="16" width="2" height="1" fill="rgb(0,0,0)" /><rect x="10" y="16" width="1" height="1" fill="rgb(0,0,0)" /><rect x="25" y="16" width="1" height="1" fill="rgb(0,0,0)" /><rect x="5" y="17" width="1" height="1" fill="rgb(0,0,0)" /><rect x="8" y="17" width="1" height="1" fill="rgb(0,0,0)" /><rect x="11" y="17" width="1" height="1" fill="rgb(0,0,0)" /><rect x="24" y="17" width="1" height="1" fill="rgb(0,0,0)" /><rect x="4" y="18" width="1" height="1" fill="rgb(0,0,0)" /><rect x="8" y="18" width="1" height="1" fill="rgb(0,0,0)" /><rect x="12" y="18" width="1" height="1" fill="rgb(0,0,0)" /><rect x="23" y="18" width="1" height="1" fill="rgb(0,0,0)" /><rect x="4" y="19" width="1" height="1" fill="rgb(0,0,0)" /><rect x="7" y="19" width="1" height="1" fill="rgb(0,0,0)" /><rect x="11" y="19" width="1" height="1" fill="rgb(0,0,0)" /><rect x="22" y="19" width="1" height="1" fill="rgb(0,0,0)" /><rect x="4" y="20" width="1" height="1" fill="rgb(0,0,0)" /><rect x="7" y="20" width="1" height="1" fill="rgb(0,0,0)" /><rect x="10" y="20" width="1" height="1" fill="rgb(0,0,0)" /><rect x="21" y="20" width="1" height="1" fill="rgb(0,0,0)" /><rect x="5" y="21" width="1" height="1" fill="rgb(0,0,0)" /><rect x="8" y="21" width="2" height="1" fill="rgb(0,0,0)" /><rect x="13" y="21" width="1" height="1" fill="rgb(0,0,0)" /><rect x="22" y="21" width="1" height="1" fill="rgb(0,0,0)" /><rect x="6" y="22" width="1" height="1" fill="rgb(0,0,0)" /><rect x="8" y="22" width="1" height="1" fill="rgb(0,0,0)" /><rect x="13" y="22" width="2" height="1" fill="rgb(0,0,0)" /><rect x="17" y="22" width="1" height="1" fill="rgb(0,0,0)" /><rect x="19" y="22" width="1" height="1" fill="rgb(0,0,0)" /><rect x="21" y="22" width="1" height="1" fill="rgb(0,0,0)" /><rect x="7" y="23" width="3" height="1" fill="rgb(0,0,0)" /><rect x="14" y="23" width="1" height="1" fill="rgb(0,0,0)" /><rect x="16" y="23" width="1" height="1" fill="rgb(0,0,0)" /><rect x="19" y="23" width="1" height="1" fill="rgb(0,0,0)" /><rect x="22" y="23" width="1" height="1" fill="rgb(0,0,0)" /><rect x="4" y="24" width="22" height="1" fill="rgb(0,0,0)" /><rect x="14" y="9" width="1" height="1" fill="rgb(95,95,95)" /><rect x="22" y="9" width="1" height="1" fill="rgb(133,133,133)" /><rect x="13" y="10" width="1" height="1" fill="rgb(74,78,78)" /><rect x="14" y="10" width="1" height="1" fill="rgb(117,189,189)" /><rect x="15" y="10" width="1" height="1" fill="rgb(95,95,95)" /><rect x="21" y="10" width="1" height="1" fill="rgb(95,95,95)" /><rect x="22" y="10" width="1" height="1" fill="rgb(117,189,189)" /><rect x="13" y="11" width="1" height="1" fill="rgb(117,189,189)" /><rect x="14" y="11" width="1" height="1" fill="rgb(79,146,146)" /><rect x="15" y="11" width="2" height="1" fill="rgb(95,95,95)" /><rect x="21" y="11" width="1" height="1" fill="rgb(95,95,95)" /><rect x="22" y="11" width="1" height="1" fill="rgb(79,146,146)" /><rect x="13" y="12" width="1" height="1" fill="rgb(74,78,78)" /><rect x="14" y="12" width="2" height="1" fill="rgb(95,95,95)" /><rect x="16" y="12" width="1" height="1" fill="rgb(133,133,133)" /><rect x="17" y="12" width="4" height="1" fill="rgb(95,95,95)" /><rect x="21" y="12" width="1" height="1" fill="rgb(133,133,133)" /><rect x="22" y="12" width="1" height="1" fill="rgb(95,95,95)" /><rect x="13" y="13" width="1" height="1" fill="rgb(74,78,78)" /><rect x="14" y="13" width="1" height="1" fill="rgb(95,95,95)" /><rect x="15" y="13" width="1" height="1" fill="rgb(133,133,133)" /><rect x="16" y="13" width="4" height="1" fill="rgb(95,95,95)" /><rect x="20" y="13" width="1" height="1" fill="rgb(133,133,133)" /><rect x="21" y="13" width="2" height="1" fill="rgb(95,95,95)" /><rect x="13" y="14" width="1" height="1" fill="rgb(74,78,78)" /><rect x="14" y="14" width="2" height="1" fill="rgb(95,95,95)" /><rect x="16" y="14" width="7" height="1" fill="rgb(48,48,48)" /><rect x="23" y="14" width="1" height="1" fill="rgb(133,133,133)" /><rect x="12" y="15" width="1" height="1" fill="rgb(74,78,78)" /><rect x="13" y="15" width="1" height="1" fill="rgb(133,133,133)" /><rect x="14" y="15" width="1" height="1" fill="rgb(95,95,95)" /><rect x="15" y="15" width="1" height="1" fill="rgb(48,48,48)" /><rect x="16" y="15" width="1" height="1" fill="rgb(17,95,114)" /><rect x="17" y="15" width="1" height="1" fill="rgb(20,188,228)" /><rect x="18" y="15" width="3" height="1" fill="rgb(62,65,63)" /><rect x="21" y="15" width="1" height="1" fill="rgb(17,95,114)" /><rect x="22" y="15" width="1" height="1" fill="rgb(20,188,228)" /><rect x="23" y="15" width="1" height="1" fill="rgb(48,48,48)" /><rect x="11" y="16" width="1" height="1" fill="rgb(74,78,78)" /><rect x="12" y="16" width="1" height="1" fill="rgb(133,133,133)" /><rect x="13" y="16" width="1" height="1" fill="rgb(95,95,95)" /><rect x="14" y="16" width="2" height="1" fill="rgb(48,48,48)" /><rect x="16" y="16" width="1" height="1" fill="rgb(20,188,228)" /><rect x="17" y="16" width="1" height="1" fill="rgb(17,95,114)" /><rect x="18" y="16" width="3" height="1" fill="rgb(62,65,63)" /><rect x="21" y="16" width="1" height="1" fill="rgb(20,188,228)" /><rect x="22" y="16" width="1" height="1" fill="rgb(17,95,114)" /><rect x="23" y="16" width="1" height="1" fill="rgb(48,48,48)" /><rect x="24" y="16" width="1" height="1" fill="rgb(133,133,133)" /><rect x="6" y="17" width="1" height="1" fill="rgb(74,78,78)" /><rect x="7" y="17" width="1" height="1" fill="rgb(95,95,95)" /><rect x="12" y="17" width="1" height="1" fill="rgb(74,78,78)" /><rect x="13" y="17" width="1" height="1" fill="rgb(95,95,95)" /><rect x="14" y="17" width="2" height="1" fill="rgb(48,48,48)" /><rect x="16" y="17" width="3" height="1" fill="rgb(62,65,63)" /><rect x="19" y="17" width="1" height="1" fill="rgb(0,0,0)" /><rect x="20" y="17" width="3" height="1" fill="rgb(62,65,63)" /><rect x="23" y="17" width="1" height="1" fill="rgb(48,48,48)" /><rect x="5" y="18" width="1" height="1" fill="rgb(74,78,78)" /><rect x="6" y="18" width="1" height="1" fill="rgb(95,95,95)" /><rect x="7" y="18" width="1" height="1" fill="rgb(133,133,133)" /><rect x="13" y="18" width="1" height="1" fill="rgb(74,78,78)" /><rect x="14" y="18" width="3" height="1" fill="rgb(95,95,95)" /><rect x="17" y="18" width="1" height="1" fill="rgb(48,48,48)" /><rect x="18" y="18" width="3" height="1" fill="rgb(0,0,0)" /><rect x="21" y="18" width="1" height="1" fill="rgb(48,48,48)" /><rect x="22" y="18" width="1" height="1" fill="rgb(95,95,95)" /><rect x="5" y="19" width="1" height="1" fill="rgb(74,78,78)" /><rect x="6" y="19" width="1" height="1" fill="rgb(133,133,133)" /><rect x="12" y="19" width="1" height="1" fill="rgb(74,78,78)" /><rect x="13" y="19" width="1" height="1" fill="rgb(95,95,95)" /><rect x="14" y="19" width="2" height="1" fill="rgb(74,78,78)" /><rect x="16" y="19" width="6" height="1" fill="rgb(95,95,95)" /><rect x="5" y="20" width="1" height="1" fill="rgb(74,78,78)" /><rect x="6" y="20" width="1" height="1" fill="rgb(95,95,95)" /><rect x="11" y="20" width="1" height="1" fill="rgb(74,78,78)" /><rect x="12" y="20" width="1" height="1" fill="rgb(95,95,95)" /><rect x="13" y="20" width="1" height="1" fill="rgb(74,78,78)" /><rect x="14" y="20" width="2" height="1" fill="rgb(95,95,95)" /><rect x="16" y="20" width="1" height="1" fill="rgb(133,133,133)" /><rect x="17" y="20" width="4" height="1" fill="rgb(95,95,95)" /><rect x="6" y="21" width="1" height="1" fill="rgb(74,78,78)" /><rect x="7" y="21" width="1" height="1" fill="rgb(95,95,95)" /><rect x="10" y="21" width="1" height="1" fill="rgb(74,78,78)" /><rect x="11" y="21" width="1" height="1" fill="rgb(95,95,95)" /><rect x="12" y="21" width="1" height="1" fill="rgb(171,183,177)" /><rect x="14" y="21" width="1" height="1" fill="rgb(95,95,95)" /><rect x="15" y="21" width="1" height="1" fill="rgb(133,133,133)" /><rect x="16" y="21" width="5" height="1" fill="rgb(95,95,95)" /><rect x="21" y="21" width="1" height="1" fill="rgb(133,133,133)" /><rect x="7" y="22" width="1" height="1" fill="rgb(74,78,78)" /><rect x="9" y="22" width="1" height="1" fill="rgb(74,78,78)" /><rect x="10" y="22" width="2" height="1" fill="rgb(95,95,95)" /><rect x="12" y="22" width="1" height="1" fill="rgb(133,133,133)" /><rect x="15" y="22" width="1" height="1" fill="rgb(95,95,95)" /><rect x="16" y="22" width="1" height="1" fill="rgb(74,78,78)" /><rect x="18" y="22" width="1" height="1" fill="rgb(95,95,95)" /><rect x="20" y="22" width="1" height="1" fill="rgb(95,95,95)" /><rect x="10" y="23" width="1" height="1" fill="rgb(74,78,78)" /><rect x="11" y="23" width="2" height="1" fill="rgb(95,95,95)" /><rect x="13" y="23" width="1" height="1" fill="rgb(133,133,133)" /><rect x="15" y="23" width="1" height="1" fill="rgb(74,78,78)" /><rect x="17" y="23" width="2" height="1" fill="rgb(95,95,95)" /><rect x="20" y="23" width="2" height="1" fill="rgb(95,95,95)" /><rect x="17" y="11" width="6" height="1" fill="rgb(53,73,71)" /><rect x="16" y="12" width="1" height="1" fill="rgb(53,73,71)" /><rect x="17" y="12" width="6" height="1" fill="rgb(251,255,253)" /><rect x="23" y="12" width="1" height="1" fill="rgb(53,73,71)" /><rect x="15" y="13" width="1" height="1" fill="rgb(53,73,71)" /><rect x="16" y="13" width="8" height="1" fill="rgb(251,255,253)" /><rect x="24" y="13" width="1" height="1" fill="rgb(53,73,71)" /><rect x="14" y="14" width="1" height="1" fill="rgb(53,73,71)" /><rect x="15" y="14" width="1" height="1" fill="rgb(251,255,253)" /><rect x="16" y="14" width="2" height="1" fill="rgb(0,0,0)" /><rect x="18" y="14" width="4" height="1" fill="rgb(251,255,253)" /><rect x="22" y="14" width="2" height="1" fill="rgb(0,0,0)" /><rect x="24" y="14" width="1" height="1" fill="rgb(251,255,253)" /><rect x="25" y="14" width="1" height="1" fill="rgb(53,73,71)" /><rect x="13" y="15" width="1" height="1" fill="rgb(53,73,71)" /><rect x="14" y="15" width="1" height="1" fill="rgb(193,200,197)" /><rect x="15" y="15" width="1" height="1" fill="rgb(0,0,0)" /><rect x="16" y="15" width="1" height="1" fill="rgb(163,234,197)" /><rect x="17" y="15" width="2" height="1" fill="rgb(0,0,0)" /><rect x="19" y="15" width="2" height="1" fill="rgb(251,255,253)" /><rect x="21" y="15" width="1" height="1" fill="rgb(0,0,0)" /><rect x="22" y="15" width="1" height="1" fill="rgb(163,234,197)" /><rect x="23" y="15" width="2" height="1" fill="rgb(0,0,0)" /><rect x="25" y="15" width="1" height="1" fill="rgb(53,73,71)" /><rect x="13" y="16" width="1" height="1" fill="rgb(53,73,71)" /><rect x="14" y="16" width="1" height="1" fill="rgb(193,200,197)" /><rect x="15" y="16" width="1" height="1" fill="rgb(0,0,0)" /><rect x="16" y="16" width="1" height="1" fill="rgb(163,234,197)" /><rect x="17" y="16" width="2" height="1" fill="rgb(0,0,0)" /><rect x="19" y="16" width="2" height="1" fill="rgb(251,255,253)" /><rect x="21" y="16" width="1" height="1" fill="rgb(0,0,0)" /><rect x="22" y="16" width="1" height="1" fill="rgb(163,234,197)" /><rect x="23" y="16" width="2" height="1" fill="rgb(0,0,0)" /><rect x="25" y="16" width="1" height="1" fill="rgb(53,73,71)" /><rect x="13" y="17" width="1" height="1" fill="rgb(53,73,71)" /><rect x="14" y="17" width="1" height="1" fill="rgb(193,200,197)" /><rect x="15" y="17" width="1" height="1" fill="rgb(251,255,253)" /><rect x="16" y="17" width="2" height="1" fill="rgb(0,0,0)" /><rect x="18" y="17" width="2" height="1" fill="rgb(251,255,253)" /><rect x="20" y="17" width="1" height="1" fill="rgb(53,73,71)" /><rect x="21" y="17" width="1" height="1" fill="rgb(251,255,253)" /><rect x="22" y="17" width="2" height="1" fill="rgb(0,0,0)" /><rect x="24" y="17" width="1" height="1" fill="rgb(251,255,253)" /><rect x="25" y="17" width="1" height="1" fill="rgb(53,73,71)" /><rect x="13" y="18" width="2" height="1" fill="rgb(53,73,71)" /><rect x="15" y="18" width="1" height="1" fill="rgb(193,200,197)" /><rect x="16" y="18" width="3" height="1" fill="rgb(251,255,253)" /><rect x="19" y="18" width="1" height="1" fill="rgb(53,73,71)" /><rect x="20" y="18" width="1" height="1" fill="rgb(193,200,197)" /><rect x="21" y="18" width="1" height="1" fill="rgb(53,73,71)" /><rect x="22" y="18" width="2" height="1" fill="rgb(251,255,253)" /><rect x="24" y="18" width="1" height="1" fill="rgb(53,73,71)" /><rect x="15" y="19" width="1" height="1" fill="rgb(53,73,71)" /><rect x="16" y="19" width="1" height="1" fill="rgb(193,200,197)" /><rect x="17" y="19" width="6" height="1" fill="rgb(251,255,253)" /><rect x="23" y="19" width="1" height="1" fill="rgb(193,200,197)" /><rect x="24" y="19" width="1" height="1" fill="rgb(53,73,71)" /><rect x="16" y="20" width="2" height="1" fill="rgb(53,73,71)" /><rect x="18" y="20" width="1" height="1" fill="rgb(193,200,197)" /><rect x="19" y="20" width="1" height="1" fill="rgb(53,73,71)" /><rect x="20" y="20" width="1" height="1" fill="rgb(193,200,197)" /><rect x="21" y="20" width="1" height="1" fill="rgb(53,73,71)" /><rect x="22" y="20" width="1" height="1" fill="rgb(193,200,197)" /><rect x="23" y="20" width="1" height="1" fill="rgb(53,73,71)" /><rect x="18" y="21" width="1" height="1" fill="rgb(53,73,71)" /><rect x="20" y="21" width="1" height="1" fill="rgb(53,73,71)" /><rect x="22" y="21" width="1" height="1" fill="rgb(53,73,71)" /><rect x="15" y="1" width="2" height="1" fill="rgb(19,14,9)" /><rect x="20" y="1" width="2" height="1" fill="rgb(19,14,9)" /><rect x="14" y="2" width="1" height="1" fill="rgb(19,14,9)" /><rect x="15" y="2" width="2" height="1" fill="rgb(184,12,22)" /><rect x="17" y="2" width="1" height="1" fill="rgb(19,14,9)" /><rect x="19" y="2" width="1" height="1" fill="rgb(19,14,9)" /><rect x="20" y="2" width="2" height="1" fill="rgb(184,12,22)" /><rect x="22" y="2" width="1" height="1" fill="rgb(19,14,9)" /><rect x="13" y="3" width="1" height="1" fill="rgb(19,14,9)" /><rect x="14" y="3" width="2" height="1" fill="rgb(184,12,22)" /><rect x="16" y="3" width="1" height="1" fill="rgb(204,192,193)" /><rect x="17" y="3" width="1" height="1" fill="rgb(184,12,22)" /><rect x="18" y="3" width="1" height="1" fill="rgb(19,14,9)" /><rect x="19" y="3" width="4" height="1" fill="rgb(184,12,22)" /><rect x="23" y="3" width="1" height="1" fill="rgb(19,14,9)" /><rect x="13" y="4" width="1" height="1" fill="rgb(0,0,0)" /><rect x="14" y="4" width="1" height="1" fill="rgb(184,12,22)" /><rect x="15" y="4" width="1" height="1" fill="rgb(204,192,193)" /><rect x="16" y="4" width="7" height="1" fill="rgb(184,12,22)" /><rect x="23" y="4" width="1" height="1" fill="rgb(19,14,9)" /><rect x="13" y="5" width="1" height="1" fill="rgb(19,14,9)" /><rect x="14" y="5" width="9" height="1" fill="rgb(184,12,22)" /><rect x="23" y="5" width="1" height="1" fill="rgb(19,14,9)" /><rect x="14" y="6" width="1" height="1" fill="rgb(19,14,9)" /><rect x="15" y="6" width="7" height="1" fill="rgb(184,12,22)" /><rect x="22" y="6" width="1" height="1" fill="rgb(0,0,0)" /><rect x="15" y="7" width="1" height="1" fill="rgb(19,14,9)" /><rect x="16" y="7" width="5" height="1" fill="rgb(184,12,22)" /><rect x="21" y="7" width="1" height="1" fill="rgb(19,14,9)" /><rect x="16" y="8" width="1" height="1" fill="rgb(19,14,9)" /><rect x="17" y="8" width="3" height="1" fill="rgb(184,12,22)" /><rect x="20" y="8" width="1" height="1" fill="rgb(19,14,9)" /><rect x="17" y="9" width="1" height="1" fill="rgb(19,14,9)" /><rect x="18" y="9" width="1" height="1" fill="rgb(184,12,22)" /><rect x="19" y="9" width="1" height="1" fill="rgb(19,14,9)" /><rect x="18" y="10" width="1" height="1" fill="rgb(19,14,9)" /><rect x="4" y="24" width="1" height="1" fill="rgb(0,0,0)" /></svg>